<?xml version="1.0" standalone="no"?><svg xmlns="http://www.w3.org/2000/svg" viewBox="0 0 1440 320"><path fill="#194594" fill-opacity="1" d="M0,32L21.8,48C43.6,64,87,96,131,122.7C174.5,149,218,171,262,160C305.5,149,349,107,393,122.7C436.4,139,480,213,524,240C567.3,267,611,245,655,208C698.2,171,742,117,785,133.3C829.1,149,873,235,916,240C960,245,1004,171,1047,144C1090.9,117,1135,139,1178,160C1221.8,181,1265,203,1309,186.7C1352.7,171,1396,117,1418,90.7L1440,64L1440,320L1418.2,320C1396.4,320,1353,320,1309,320C1265.5,320,1222,320,1178,320C1134.5,320,1091,320,1047,320C1003.6,320,960,320,916,320C872.7,320,829,320,785,320C741.8,320,698,320,655,320C610.9,320,567,320,524,320C480,320,436,320,393,320C349.1,320,305,320,262,320C218.2,320,175,320,131,320C87.3,320,44,320,22,320L0,320Z"></path></svg>