<?xml version="1.0" encoding="utf-8"?>
<!-- Generator: Adobe Illustrator 25.0.1, SVG Export Plug-In . SVG Version: 6.00 Build 0)  -->
<svg version="1.1" id="Layer_1" xmlns="http://www.w3.org/2000/svg" xmlns:xlink="http://www.w3.org/1999/xlink" x="0px" y="0px"
	 viewBox="0 0 154.2 130" style="enable-background:new 0 0 154.2 130;" xml:space="preserve">
<style type="text/css">
	.st0{fill:#FFFFFF;}
	.st1{fill:#003E92;}
	.st2{fill:#E50019;}
	.st3{fill:none;}
</style>
<g id="toa" transform="translate(-242.993 -94.983)">
	<path id="Path_51257" class="st0" d="M384.8,109.1L320.1,95c0,0-0.1,0-0.1,0c-0.6,0.1-60.5,13.1-65.1,14.1
		c-5.8,1.3-11.9,5.6-11.9,13.6v74.6c0,7.9,6.1,12.2,11.9,13.6c4.6,1,64.5,14,65.1,14.1c0,0,0.1,0,0.1,0c0.6-0.1,60.1-13.1,64.7-14.1
		c6-1.4,12.4-5.7,12.4-13.6v-74.6C397.2,117.5,393.9,111.2,384.8,109.1z"/>
	<rect id="Rectangle_85800" x="247.9" y="124.3" class="st0" width="144.3" height="71.2"/>
	<rect id="Rectangle_85801" x="248" y="130.8" class="st1" width="144" height="58.5"/>
	<path id="Path_51258" class="st2" d="M248,124.3c0-7.7,6.2-9.8,10.9-10.9c4.4-1,61.2-13.3,61.2-13.3s56.4,12.3,60.8,13.3
		c4.7,1.1,11.4,3.2,11.4,10.9H248z"/>
	<path id="Path_51259" class="st2" d="M248,195.6c0,7.7,6.2,9.9,10.9,10.9c4.4,1,61.2,13.3,61.2,13.3s56.4-12.3,60.8-13.3
		c4.7-1.1,11.4-3.2,11.4-10.9H248z"/>
	<path id="Path_51260" class="st0" d="M254.2,137.2h40.3v12.6h-13.4v33.4h-13.6v-33.4h-13.4V137.2z"/>
	<path id="Path_51261" class="st0" d="M336.7,183.1l17.4-45.9H368l17.7,45.9h-13.5l-2.4-7.3h-17.4l-2.6,7.3H336.7z M361.1,151.4
		l-4.9,13.7h9.8L361.1,151.4z"/>
	<path id="Path_51262" class="st0" d="M317.8,136.9c-12.8,0-23.2,10.4-23.1,23.2c0,12.8,10.4,23.2,23.2,23.1
		c12.8,0,23.2-10.4,23.1-23.2C340.9,147.3,330.6,136.9,317.8,136.9z M317.8,170.4c-5.7,0-10.4-4.6-10.4-10.4
		c0-5.7,4.6-10.4,10.4-10.4s10.4,4.6,10.4,10.4c0,0,0,0,0,0C328.1,165.8,323.5,170.4,317.8,170.4
		C317.8,170.4,317.8,170.4,317.8,170.4z"/>
</g>
<rect x="0" class="st3" width="154.2" height="130"/>
</svg>
